<svg xmlns="http://www.w3.org/2000/svg" viewBox="0 0 320 80" width="320" height="80">
  <defs>
    <linearGradient id="bowG" x1="0" y1="0" x2="1" y2="1">
      <stop offset="0%" stop-color="#EFC6D2"/>
      <stop offset="55%" stop-color="#D98FA2"/>
      <stop offset="100%" stop-color="#C9778E"/>
    </linearGradient>
  </defs>
  <g transform="translate(8 16)">
    <path d="M32 24c-4-7-10-12-18-12-4 0-7 3-7 7 0 6 7 12 18 14-7 1-12 4-12 9 0 3 3 5 7 5 6 0 11-5 12-11Z" fill="url(#bowG)"/>
    <path d="M32 24c4-7 10-12 18-12 4 0 7 3 7 7 0 6-7 12-18 14 7 1 12 4 12 9 0 3-3 5-7 5-6 0-11-5-12-11Z" fill="url(#bowG)"/>
    <path d="M28 14c2 6 2 14 0 20l8-1c-2-6-2-12 0-18Z" fill="#A8536A"/>
  </g>
  <text x="78" y="38" font-family="Poiret One, system-ui, sans-serif" font-size="22" letter-spacing="1.5" fill="#3D2B32">LAVISH LADIES</text>
  <text x="78" y="60" font-family="Poppins, system-ui, sans-serif" font-size="11" letter-spacing="4" fill="#A8536A">LAWN CARE</text>
</svg>
